<svg width="79" height="53" viewBox="0 0 79 53" fill="none" xmlns="http://www.w3.org/2000/svg">
<path d="M76.88 32.84C76.88 34.52 76.2 35.88 74.84 36.92C73.5067 37.9333 71.8667 38.44 69.92 38.44C68 38.44 66.4 38.2133 65.12 37.76C63.84 37.3067 63.2 36.8 63.2 36.24V32.76C63.2 32.28 63.3733 32.04 63.72 32.04C64.0933 32.04 64.3467 32.28 64.48 32.76C65.3067 35.5067 67.04 36.88 69.68 36.88C70.88 36.88 71.8667 36.5867 72.64 36C73.4133 35.3867 73.8 34.6267 73.8 33.72C73.8 32.8133 73.44 32.04 72.72 31.4C72 30.7333 71.12 30.16 70.08 29.68C69.0667 29.2 68.04 28.6933 67 28.16C65.9867 27.6267 65.12 26.9467 64.4 26.12C63.68 25.2667 63.32 24.2933 63.32 23.2C63.32 21.5733 63.9467 20.2267 65.2 19.16C66.4533 18.0933 68.12 17.56 70.2 17.56C71.5867 17.56 72.8533 17.8 74 18.28C75.1467 18.7333 75.72 19.2267 75.72 19.76V22.84C75.72 23.32 75.5333 23.56 75.16 23.56C74.7867 23.56 74.5467 23.32 74.44 22.84C73.72 20.36 72.2133 19.12 69.92 19.12C68.88 19.12 68 19.3867 67.28 19.92C66.56 20.4267 66.2 21.12 66.2 22C66.2 22.8533 66.56 23.6133 67.28 24.28C68.0267 24.9467 68.92 25.5333 69.96 26.04C71.0267 26.52 72.08 27.04 73.12 27.6C74.16 28.1333 75.04 28.8533 75.76 29.76C76.5067 30.64 76.88 31.6667 76.88 32.84Z" fill="#7ED956"/>
<path d="M19.36 29.28C19.36 26.08 18.72 23.6 17.44 21.84C16.16 20.08 14.56 19.2 12.64 19.2C10.7467 19.2 9.32 19.72 8.36 20.76C7.42667 21.7733 6.96 22.8533 6.96 24V32.04C6.96 33.32 7.52 34.4533 8.64 35.44C9.78667 36.4 11.04 36.88 12.4 36.88C14.5333 36.88 16.2267 36.2133 17.48 34.88C18.7333 33.5467 19.36 31.68 19.36 29.28ZM6.32 17.56C6.74667 17.56 6.96 17.8667 6.96 18.48V19.24C6.96 19.56 7.06667 19.6267 7.28 19.44C7.52 19.2533 7.84 19.04 8.24 18.8C8.64 18.5333 9.25333 18.2667 10.08 18C10.9067 17.7067 11.7467 17.56 12.6 17.56C15.72 17.56 18.2 18.5067 20.04 20.4C21.9067 22.2667 22.84 24.7733 22.84 27.92C22.84 31.0667 21.8667 33.6133 19.92 35.56C17.9733 37.48 15.6 38.44 12.8 38.44C10.7467 38.44 8.96 37.88 7.44 36.76C7.30667 36.6533 7.18667 36.64 7.08 36.72C7 36.8 6.96 36.9333 6.96 37.12V47.36C6.96 48.32 7.49333 48.8667 8.56 49L9.24 49.08C9.56 49.1067 9.72 49.2933 9.72 49.64C9.72 49.9867 9.52 50.16 9.12 50.16L5.32 50L1 50.16C0.6 50.16 0.4 49.9867 0.4 49.64C0.4 49.2933 0.56 49.1067 0.88 49.08L2 49C2.53333 48.9467 2.97333 48.7733 3.32 48.48C3.66667 48.2133 3.84 47.84 3.84 47.36V20.72C3.84 20.1867 3.72 19.8267 3.48 19.64C3.26667 19.4267 2.90667 19.32 2.4 19.32H1.04C0.693333 19.32 0.52 19.1467 0.52 18.8C0.52 18.4533 0.693333 18.2533 1.04 18.2L6.24 17.56C6.26667 17.56 6.29333 17.56 6.32 17.56ZM31.5638 6C31.9904 6 32.2038 6.30667 32.2038 6.92V20.52C32.2038 20.6533 32.2438 20.72 32.3238 20.72C32.4304 20.72 32.5638 20.64 32.7238 20.48C34.2704 18.5333 36.2838 17.56 38.7638 17.56C41.2704 17.56 43.1904 18.2267 44.5238 19.56C45.8571 20.8667 46.5238 22.76 46.5238 25.24V35.36C46.5238 35.84 46.6971 36.2267 47.0438 36.52C47.3904 36.7867 47.8304 36.9467 48.3637 37L49.4838 37.08C49.8038 37.1067 49.9638 37.2933 49.9638 37.64C49.9638 37.9867 49.7638 38.16 49.3638 38.16L45.0437 38L41.4438 38.16C41.0438 38.16 40.8438 37.9867 40.8438 37.64C40.8438 37.2933 41.0038 37.1067 41.3238 37.08L41.8038 37C42.8704 36.8133 43.4038 36.2667 43.4038 35.36V24.68C43.4038 23.0267 42.9371 21.7467 42.0038 20.84C41.0704 19.9333 39.7771 19.48 38.1238 19.48C36.4971 19.48 35.0971 20.16 33.9238 21.52C32.7771 22.8533 32.2038 24.1733 32.2038 25.48V35.36C32.2038 36.32 32.7371 36.8667 33.8038 37L34.4038 37.08C34.7238 37.1067 34.8838 37.2933 34.8838 37.64C34.8838 37.9867 34.6838 38.16 34.2838 38.16L30.5638 38L26.2438 38.16C25.8438 38.16 25.6438 37.9867 25.6438 37.64C25.6438 37.2933 25.8038 37.1067 26.1238 37.08L27.2438 37C27.7771 36.9467 28.2171 36.7867 28.5638 36.52C28.9104 36.2267 29.0838 35.84 29.0838 35.36V9.16C29.0838 8.62666 28.9638 8.26666 28.7238 8.08C28.5104 7.86667 28.1504 7.76 27.6438 7.76H26.2838C25.9371 7.76 25.7638 7.58666 25.7638 7.24C25.7638 6.89333 25.9371 6.69333 26.2838 6.64L31.4838 6C31.5104 6 31.5371 6 31.5638 6ZM62.5116 17.56C65.5782 17.56 68.0182 18.52 69.8316 20.44C71.6716 22.36 72.5916 24.8933 72.5916 28.04C72.5916 31.16 71.6849 33.68 69.8716 35.6C68.0582 37.4933 65.5916 38.44 62.4716 38.44C59.3782 38.44 56.9116 37.48 55.0716 35.56C53.2582 33.64 52.3516 31.1333 52.3516 28.04C52.3516 24.9467 53.2849 22.4267 55.1516 20.48C57.0182 18.5333 59.4716 17.56 62.5116 17.56ZM67.7916 22.44C67.3382 21.4267 66.6582 20.6267 65.7516 20.04C64.8716 19.4267 63.7916 19.12 62.5116 19.12C60.2982 19.12 58.6449 19.8533 57.5516 21.32C56.4582 22.7867 55.9116 24.7067 55.9116 27.08C55.9116 29.5333 56.3382 31.7067 57.1916 33.6C57.6449 34.5867 58.3116 35.3867 59.1916 36C60.0982 36.5867 61.1649 36.88 62.3916 36.88C64.6582 36.88 66.3249 36.1467 67.3916 34.68C68.4849 33.2133 69.0316 31.2667 69.0316 28.84C69.0316 26.4133 68.6182 24.28 67.7916 22.44Z" fill="black"/>
<path d="M19.897 46.535C20.275 46.583 20.611 46.757 20.905 47.057C21.205 47.351 21.355 47.738 21.355 48.218C21.355 48.698 21.175 49.115 20.815 49.469C20.455 49.823 20.008 50 19.474 50H17.422L16.405 50.036C16.321 50.036 16.279 49.988 16.279 49.892C16.279 49.826 16.312 49.793 16.378 49.793L16.639 49.775C16.915 49.739 17.053 49.616 17.053 49.406V44.294C17.053 44.078 16.915 43.958 16.639 43.934L16.378 43.907C16.312 43.895 16.279 43.859 16.279 43.799C16.279 43.709 16.321 43.664 16.405 43.664L17.53 43.7H19.276C19.744 43.7 20.134 43.844 20.446 44.132C20.758 44.42 20.914 44.756 20.914 45.14C20.914 45.524 20.812 45.83 20.608 46.058C20.404 46.28 20.167 46.433 19.897 46.517V46.535ZM19.771 46.058C19.999 45.848 20.113 45.569 20.113 45.221C20.113 44.873 20.002 44.6 19.78 44.402C19.558 44.198 19.267 44.096 18.907 44.096H18.151C18.067 44.096 17.989 44.129 17.917 44.195C17.851 44.255 17.818 44.318 17.818 44.384V46.193C17.818 46.313 17.878 46.373 17.998 46.373H18.907C19.261 46.373 19.549 46.268 19.771 46.058ZM19.069 49.604C19.501 49.604 19.855 49.472 20.131 49.208C20.413 48.944 20.554 48.602 20.554 48.182C20.554 47.756 20.413 47.414 20.131 47.156C19.855 46.898 19.501 46.769 19.069 46.769H17.971C17.869 46.769 17.818 46.823 17.818 46.931V49.244C17.818 49.484 17.938 49.604 18.178 49.604H19.069ZM25.0551 47.687V44.294C25.0551 44.078 24.9171 43.958 24.6411 43.934L24.3801 43.907C24.3141 43.895 24.2811 43.856 24.2811 43.79C24.2811 43.706 24.3231 43.664 24.4071 43.664L25.4241 43.7L26.3151 43.664C26.4051 43.664 26.4501 43.7 26.4501 43.772C26.4501 43.856 26.4111 43.901 26.3331 43.907L26.1801 43.934C25.9401 43.976 25.8201 44.096 25.8201 44.294V47.696C25.8201 48.254 25.9881 48.689 26.3241 49.001C26.6601 49.313 27.1011 49.469 27.6471 49.469C28.1991 49.469 28.6431 49.31 28.9791 48.992C29.3211 48.674 29.4921 48.242 29.4921 47.696V44.294C29.4921 44.096 29.3721 43.976 29.1321 43.934L28.9791 43.907C28.9011 43.895 28.8621 43.853 28.8621 43.781C28.8621 43.709 28.9071 43.673 28.9971 43.673L29.6991 43.7L30.5721 43.673C30.6561 43.673 30.6981 43.709 30.6981 43.781C30.6981 43.853 30.6651 43.895 30.5991 43.907L30.3381 43.934C30.0621 43.964 29.9241 44.084 29.9241 44.294V47.687C29.9241 48.425 29.6961 49.013 29.2401 49.451C28.7901 49.883 28.2111 50.099 27.5031 50.099C26.7951 50.099 26.2101 49.874 25.7481 49.424C25.2861 48.974 25.0551 48.395 25.0551 47.687ZM38.0031 48.371C38.0031 48.935 37.7901 49.364 37.3641 49.658C36.9441 49.952 36.4311 50.099 35.8251 50.099C35.2251 50.099 34.7301 50.027 34.3401 49.883C33.9561 49.739 33.7641 49.58 33.7641 49.406V48.353C33.7641 48.227 33.8121 48.164 33.9081 48.164C33.9861 48.164 34.0401 48.221 34.0701 48.335C34.2261 48.797 34.4271 49.142 34.6731 49.37C34.9251 49.592 35.2761 49.703 35.7261 49.703C36.1761 49.703 36.5391 49.601 36.8151 49.397C37.0971 49.193 37.2381 48.911 37.2381 48.551C37.2381 48.155 37.0161 47.822 36.5721 47.552C36.3741 47.432 36.1551 47.315 35.9151 47.201C35.6751 47.087 35.4351 46.97 35.1951 46.85C34.9551 46.724 34.7361 46.589 34.5381 46.445C34.0941 46.121 33.8721 45.713 33.8721 45.221C33.8721 44.723 34.0611 44.33 34.4391 44.042C34.8231 43.748 35.2731 43.601 35.7891 43.601C36.3051 43.601 36.7431 43.667 37.1031 43.799C37.4631 43.925 37.6431 44.066 37.6431 44.222V45.131C37.6431 45.251 37.5981 45.311 37.5081 45.311C37.4241 45.311 37.3611 45.251 37.3191 45.131C37.1931 44.747 37.0281 44.462 36.8241 44.276C36.6201 44.09 36.3141 43.997 35.9061 43.997C35.5041 43.997 35.1861 44.093 34.9521 44.285C34.7181 44.477 34.6011 44.717 34.6011 45.005C34.6011 45.287 34.7181 45.533 34.9521 45.743C35.1861 45.947 35.4681 46.13 35.7981 46.292C36.1341 46.448 36.4671 46.613 36.7971 46.787C37.1331 46.955 37.4181 47.174 37.6521 47.444C37.8861 47.714 38.0031 48.023 38.0031 48.371ZM41.4347 50.036C41.3507 50.036 41.3087 50 41.3087 49.928C41.3087 49.85 41.3417 49.805 41.4077 49.793L41.5607 49.775C41.8067 49.745 41.9297 49.622 41.9297 49.406V44.294C41.9297 44.078 41.7917 43.958 41.5157 43.934L41.2547 43.907C41.1887 43.895 41.1557 43.856 41.1557 43.79C41.1557 43.706 41.1977 43.664 41.2817 43.664L42.2987 43.7L43.1897 43.664C43.2797 43.664 43.3247 43.7 43.3247 43.772C43.3247 43.856 43.2857 43.901 43.2077 43.907L43.0547 43.934C42.8147 43.976 42.6947 44.096 42.6947 44.294V49.406C42.6947 49.514 42.7337 49.601 42.8117 49.667C42.8897 49.727 42.9857 49.763 43.0997 49.775L43.3607 49.793C43.4327 49.793 43.4687 49.832 43.4687 49.91C43.4687 49.946 43.4537 49.976 43.4237 50C43.3997 50.024 43.3727 50.036 43.3427 50.036L42.3257 50L41.4347 50.036ZM51.6891 48.659V44.294C51.6891 44.084 51.5541 43.964 51.2841 43.934L51.0231 43.907C50.9571 43.895 50.9241 43.853 50.9241 43.781C50.9241 43.709 50.9661 43.673 51.0502 43.673L51.9232 43.7L52.6251 43.673C52.7151 43.673 52.7602 43.709 52.7602 43.781C52.7602 43.853 52.7212 43.895 52.6432 43.907L52.4901 43.934C52.2502 43.976 52.1302 44.096 52.1302 44.294V49.991C52.1302 50.063 52.0972 50.099 52.0311 50.099H51.9141C51.7641 50.099 51.6351 50.027 51.5271 49.883L47.7381 45.032C47.7261 45.02 47.7081 45.014 47.6841 45.014C47.6601 45.014 47.6481 45.044 47.6481 45.104V49.406C47.6481 49.604 47.7681 49.724 48.0081 49.766L48.1611 49.793C48.2391 49.805 48.2781 49.847 48.2781 49.919C48.2781 49.991 48.2331 50.027 48.1431 50.027L47.4411 50L46.5681 50.027C46.4841 50.027 46.4421 49.991 46.4421 49.919C46.4421 49.847 46.4751 49.805 46.5411 49.793L46.8021 49.766C47.0781 49.736 47.2161 49.616 47.2161 49.406V44.294C47.2161 44.084 47.0961 43.964 46.8561 43.934L46.6941 43.916C46.6221 43.904 46.5861 43.862 46.5861 43.79C46.5861 43.712 46.6311 43.673 46.7211 43.673L47.4411 43.7C47.6151 43.706 47.7471 43.763 47.8371 43.871L51.5902 48.686C51.6081 48.704 51.6291 48.713 51.6531 48.713C51.6771 48.713 51.6891 48.695 51.6891 48.659ZM60.2456 50H56.8706L55.8536 50.036C55.7696 50.036 55.7276 49.997 55.7276 49.919C55.7276 49.835 55.7606 49.793 55.8266 49.793L56.0876 49.775C56.2076 49.763 56.3066 49.727 56.3846 49.667C56.4626 49.601 56.5016 49.514 56.5016 49.406V44.294C56.5016 44.078 56.3636 43.958 56.0876 43.934L55.8266 43.907C55.7606 43.907 55.7276 43.868 55.7276 43.79C55.7276 43.706 55.7696 43.664 55.8536 43.664L56.8706 43.7H60.0656C60.1796 43.7 60.2726 43.736 60.3446 43.808C60.4166 43.874 60.4586 43.958 60.4706 44.06L60.5966 44.888C60.6086 44.996 60.5636 45.05 60.4616 45.05C60.3656 45.05 60.3026 45.002 60.2726 44.906C60.1826 44.618 60.0476 44.414 59.8676 44.294C59.6876 44.174 59.4386 44.114 59.1206 44.114H57.7076C57.5756 44.114 57.4676 44.153 57.3836 44.231C57.3056 44.303 57.2666 44.405 57.2666 44.537V46.427C57.2666 46.505 57.3056 46.544 57.3836 46.544H59.0576C59.1416 46.544 59.2076 46.523 59.2556 46.481C59.3036 46.439 59.3336 46.4 59.3456 46.364C59.3636 46.328 59.3876 46.262 59.4176 46.166L59.4536 46.049C59.4716 45.977 59.5166 45.941 59.5886 45.941C59.6606 45.941 59.6966 45.983 59.6966 46.067L59.6606 46.832L59.6966 47.561C59.6966 47.639 59.6576 47.684 59.5796 47.696C59.5076 47.696 59.4656 47.66 59.4536 47.588L59.4266 47.426C59.3726 47.114 59.2496 46.958 59.0576 46.958H57.3746C57.3026 46.958 57.2666 47 57.2666 47.084V49.172C57.2666 49.298 57.3056 49.4 57.3836 49.478C57.4676 49.55 57.5756 49.586 57.7076 49.586H59.1926C59.5046 49.586 59.7716 49.511 59.9936 49.361C60.2216 49.205 60.3806 48.98 60.4706 48.686C60.5006 48.59 60.5486 48.542 60.6146 48.542C60.6866 48.542 60.7346 48.56 60.7586 48.596C60.7886 48.626 60.8006 48.662 60.7946 48.704L60.6506 49.64C60.6386 49.742 60.5936 49.829 60.5156 49.901C60.4436 49.967 60.3536 50 60.2456 50ZM68.2807 48.371C68.2807 48.935 68.0677 49.364 67.6417 49.658C67.2217 49.952 66.7087 50.099 66.1027 50.099C65.5027 50.099 65.0077 50.027 64.6177 49.883C64.2337 49.739 64.0417 49.58 64.0417 49.406V48.353C64.0417 48.227 64.0897 48.164 64.1857 48.164C64.2637 48.164 64.3177 48.221 64.3477 48.335C64.5037 48.797 64.7047 49.142 64.9507 49.37C65.2027 49.592 65.5537 49.703 66.0037 49.703C66.4537 49.703 66.8167 49.601 67.0927 49.397C67.3747 49.193 67.5157 48.911 67.5157 48.551C67.5157 48.155 67.2937 47.822 66.8497 47.552C66.6517 47.432 66.4327 47.315 66.1927 47.201C65.9527 47.087 65.7127 46.97 65.4727 46.85C65.2327 46.724 65.0137 46.589 64.8157 46.445C64.3717 46.121 64.1497 45.713 64.1497 45.221C64.1497 44.723 64.3387 44.33 64.7167 44.042C65.1007 43.748 65.5507 43.601 66.0667 43.601C66.5827 43.601 67.0207 43.667 67.3807 43.799C67.7407 43.925 67.9207 44.066 67.9207 44.222V45.131C67.9207 45.251 67.8757 45.311 67.7857 45.311C67.7017 45.311 67.6387 45.251 67.5967 45.131C67.4707 44.747 67.3057 44.462 67.1017 44.276C66.8977 44.09 66.5917 43.997 66.1837 43.997C65.7817 43.997 65.4637 44.093 65.2297 44.285C64.9957 44.477 64.8787 44.717 64.8787 45.005C64.8787 45.287 64.9957 45.533 65.2297 45.743C65.4637 45.947 65.7457 46.13 66.0757 46.292C66.4117 46.448 66.7447 46.613 67.0747 46.787C67.4107 46.955 67.6957 47.174 67.9297 47.444C68.1637 47.714 68.2807 48.023 68.2807 48.371ZM75.8523 48.371C75.8523 48.935 75.6393 49.364 75.2133 49.658C74.7933 49.952 74.2803 50.099 73.6743 50.099C73.0743 50.099 72.5793 50.027 72.1893 49.883C71.8053 49.739 71.6133 49.58 71.6133 49.406V48.353C71.6133 48.227 71.6613 48.164 71.7573 48.164C71.8353 48.164 71.8893 48.221 71.9193 48.335C72.0753 48.797 72.2763 49.142 72.5223 49.37C72.7743 49.592 73.1253 49.703 73.5753 49.703C74.0253 49.703 74.3883 49.601 74.6643 49.397C74.9463 49.193 75.0873 48.911 75.0873 48.551C75.0873 48.155 74.8653 47.822 74.4213 47.552C74.2233 47.432 74.0043 47.315 73.7643 47.201C73.5243 47.087 73.2843 46.97 73.0443 46.85C72.8043 46.724 72.5853 46.589 72.3873 46.445C71.9433 46.121 71.7213 45.713 71.7213 45.221C71.7213 44.723 71.9103 44.33 72.2883 44.042C72.6723 43.748 73.1223 43.601 73.6383 43.601C74.1543 43.601 74.5923 43.667 74.9523 43.799C75.3123 43.925 75.4923 44.066 75.4923 44.222V45.131C75.4923 45.251 75.4473 45.311 75.3573 45.311C75.2733 45.311 75.2103 45.251 75.1683 45.131C75.0423 44.747 74.8773 44.462 74.6733 44.276C74.4693 44.09 74.1633 43.997 73.7553 43.997C73.3533 43.997 73.0353 44.093 72.8013 44.285C72.5673 44.477 72.4503 44.717 72.4503 45.005C72.4503 45.287 72.5673 45.533 72.8013 45.743C73.0353 45.947 73.3173 46.13 73.6473 46.292C73.9833 46.448 74.3163 46.613 74.6463 46.787C74.9823 46.955 75.2673 47.174 75.5013 47.444C75.7353 47.714 75.8523 48.023 75.8523 48.371Z" fill="black"/>
</svg>
